/* XPM */
static char *_e878b7ebd6e4d5fe2e73b52b556ace1UUMKubXrJd3kuVzz[] = {
/* columns rows colors chars-per-pixel */
"32 32 204 2 ",
"   c #050505",
".  c #050809",
"X  c #0D0D0C",
"o  c #190E03",
"O  c #1A1304",
"+  c #11110E",
"@  c #0A1117",
"#  c #141414",
"$  c #181716",
"%  c #191917",
"&  c #151619",
"*  c #1B1B1B",
"=  c #251604",
"-  c #2C1C03",
";  c #291D0A",
":  c #251F18",
">  c #2B210D",
",  c #36250B",
"<  c #38260A",
"1  c #3B290D",
"2  c #2D2311",
"3  c #28241B",
"4  c #312512",
"5  c #352913",
"6  c #3B2C12",
"7  c #3B2F1B",
"8  c #3D301A",
"9  c #151C25",
"0  c #131C29",
"q  c #192028",
"w  c #162434",
"e  c #192633",
"r  c #182938",
"t  c #1C2C3A",
"y  c #232324",
"u  c #282827",
"i  c #27292A",
"p  c #2C2C2B",
"a  c #312D28",
"s  c #3B352A",
"d  c #262E38",
"f  c #2A3135",
"g  c #333333",
"h  c #3A3733",
"j  c #3C3D3C",
"k  c #412B0D",
"l  c #4B3309",
"z  c #412E12",
"x  c #443112",
"c  c #4B3617",
"v  c #45351A",
"b  c #4D3C1C",
"n  c #543B14",
"m  c #503C1A",
"M  c #493B26",
"N  c #443F36",
"B  c #3E403F",
"V  c #58421A",
"C  c #5C441A",
"Z  c #60461B",
"A  c #664B1D",
"S  c #5C4827",
"D  c #43423D",
"F  c #554732",
"G  c #5D4C34",
"H  c #644D25",
"J  c #6E5424",
"K  c #6A5229",
"L  c #6A582C",
"P  c #755928",
"I  c #745B2C",
"U  c #6A5233",
"Y  c #65553A",
"T  c #6A583A",
"R  c #765935",
"E  c #735D3C",
"W  c #7B622C",
"Q  c #7D6531",
"!  c #78603C",
"~  c #1D3143",
"^  c #233443",
"/  c #223648",
"(  c #263B48",
")  c #2A3C4C",
"_  c #383D46",
"`  c #3F4040",
"'  c #324858",
"]  c #3C5064",
"[  c #434443",
"{  c #4A4945",
"}  c #4B4B4A",
"|  c #4F514F",
" . c #464F53",
".. c #545554",
"X. c #585957",
"o. c #746144",
"O. c #7B6442",
"+. c #79664B",
"@. c #716651",
"#. c #7A6C54",
"$. c #495F71",
"%. c #5F6470",
"&. c #73716D",
"*. c #81662B",
"=. c #856A36",
"-. c #8B7238",
";. c #967A3B",
":. c #816941",
">. c #836D4A",
",. c #8B7342",
"<. c #8E784A",
"1. c #937B42",
"2. c #816F54",
"3. c #847256",
"4. c #877456",
"5. c #8E7B5C",
"6. c #967E5A",
"7. c #9D813F",
"8. c #9C8242",
"9. c #9F864B",
"0. c #968259",
"q. c #A38747",
"w. c #B3984E",
"e. c #A88C52",
"r. c #AD9352",
"t. c #AD945E",
"y. c #B79C56",
"u. c #BCA354",
"i. c #998563",
"p. c #9B8867",
"a. c #948778",
"s. c #A28E6D",
"d. c #A7916D",
"f. c #A59372",
"g. c #A99677",
"h. c #AD9B7B",
"j. c #B39E77",
"k. c #BBA262",
"l. c #B9A77C",
"z. c #C0A757",
"x. c #C1A75A",
"c. c #C3AA5B",
"v. c #C3AA65",
"b. c #C3A86C",
"n. c #CCB26F",
"m. c #CEB575",
"M. c #C8B27C",
"N. c #D5BB75",
"B. c #DCC47E",
"V. c #2F6B92",
"C. c #7E9390",
"Z. c #65AAC8",
"A. c #6DC3DD",
"S. c #9F9886",
"D. c #939598",
"F. c #999B9E",
"G. c #A49A89",
"H. c #BDAB83",
"J. c #B6A588",
"K. c #B4AA91",
"L. c #9D9FA1",
"P. c #9EA1A3",
"I. c #95ADB1",
"U. c #A1A3A6",
"Y. c #A5A8AA",
"T. c #A6A9AC",
"R. c #ACAEB1",
"E. c #AEB1B5",
"W. c #B3B5BA",
"Q. c #B4B7B9",
"!. c #BBBDBE",
"~. c #C6B589",
"^. c #C8B797",
"/. c #C6B9A4",
"(. c #D9C283",
"). c #DAC995",
"_. c #E3CB84",
"`. c #EED890",
"'. c #EFDB96",
"]. c #EEE098",
"[. c #F6E49C",
"{. c #DBCCA3",
"}. c #D7CDB7",
"|. c #E9D6A9",
" X c #F7E6A6",
".X c #EEE1B9",
"XX c #FAECB9",
"oX c #FEF2B7",
"OX c #BCBDC0",
"+X c #82CCE6",
"@X c #C3C4C5",
"#X c #CCCCCC",
"$X c #D3D4D3",
"%X c #DADAD6",
"&X c #DBDBDA",
"*X c #FDF4C3",
"=X c #FFFACA",
"-X c #E9E1D4",
";X c #FFFCD4",
":X c #FFFDDB",
">X c #D5FAFF",
",X c #E4E5E5",
"<X c gray91",
"1X c #FEFFE4",
/* pixels */
"X + + + # + % % # % # X & # # X # y + + y y % # # * * + * % # X ",
"+ # + # # $ $ # g y X @ # & + + y 9 y & * # + & $ q % + # & &   ",
"# # $ $ % % $ % % p p * y & & y $ y + u i % % p * y y & & + # X ",
"# # + $ * ,.XXoX*XoXXX X[.[.'.(.b.m.m.m.m.v.k.r.q.<.S p % % X X ",
"* # # + * S .XH.s.p.f.g.g.0.;X X X X;X2.3.4.3.#.o.3.5 y * * * * ",
"& 3 + * i U .Xp.M.^.).XX;X[.1   j.y.B.`.XX5.4.T G.:X7 y u y % % ",
"X & i q q T |.~.l.~.;XoXG   w / d w 0 ; N.B.0.5.i.:X7 $ y y i p ",
"% * * a u G {.H.l.oXn.. ] r ( [. X~ r e e u.v., 4.;X5   y y * p ",
"* * g g g F ~.l. Xr.>XZ.+Xt ;X;XO t w C.' w r.y.0.:X4   + q u i ",
"p B p g B V f.1XN.@ %.K.D  .o C -.w I.f V.9 q q.r.XX>   X * y * ",
"p i g j } v f.r.  ~ A._ $.@ ( A l e t ` 3 0   . 8.o 2   X # u % ",
"f j ` j D 8 ).1.& ~ / (  .;X;X(.=X].B.V * 1 q e -.;.4   . % y * ",
"p { | j [ 8 I   ( . r 0 @ ~.r.oXoXJ L }.+ 9 *Xe ~.-.4   X * u p ",
"} ` ` | } b S : <.7 Y 0 d W 9. XN.n C q K 4.h + # Q 5   X % # i ",
"` } } { ..v V ^ -X/.../ ) C *Xz c 6 9.d.e @.h % a J 4 X X # q % ",
"[ B ..} { 8 M { D #.a.9 / ~ x.P P J d w %XM u D s S > X X & i g ",
"....} } } 4 s N }.G.: u ) H.- Q 7.c t p a.K.G.@.G > 4   + & : @ ",
"_ [ X.X.| ; z g.i.N S.a.#.'._.= Z = #.o.6./.6.U U =., X + * & y ",
"` { X.X.X.; K s.K.3.M 7 F *.l z 1 c z f.< >.T j.=.L 4 + # : y & ",
"[ { ` { | ; M i.g.s.+.4.5.v.n 1 = V x d.^.^.R H I 4 4 X @ & + X ",
"h [ N ` | ; v 2.p.#./.h.J.q.1.;.5 < S 1 ^.h.0.R I 4 , X + & y * ",
"g _ _ j } ; v m g.>.p.J.c H ;.U O ; l z i.^.g.J 5 > 2 X & $ * $ ",
"N j N _ [ ; F H >.R h.O.h.M.k ~.9.H n J R j.*X1Xz 2 4 X + $ * & ",
"f g j [ { 4 N ).*.:.^.U U ! '.- W < 1 I ^.~.~.n F 4 4   + & % & ",
"u p g p g 4 M +.n ;.o.U s.E J.'.Z d.I =.+.:XS T Y 4 5 . X + + % ",
"p * p ` g 5 M p.+.x q.y.S >.4.y.Z O.! O.A L i.Y o.5 x       X + ",
"F.F.L.P.T.m M +.4.5.T y.1.t.2.H e.4 J *.-.s.o.o.T 5 b * % % * g ",
"F.L.L.U.Y.R M 5.+.3.O.G o.w.;.8.;.1.8.#.T T T o.#.b K * * q p [ ",
"Y.Y.R.R.W.1.M H z 1 k k x k < n O z < - V Q W 1.r.W -.% 3 f | %.",
"R.W.W.OX@Xy.z.y.u.x.x.x.c.c.c.x.c.x.z.z.u.y.u.y.w.w.w.X j &.D.F.",
"R.E.Q.OX@X#X%X,X,X<X<X,X<X<X,X,X,X,X,X&X&X&X&X$X#X@X!.R.R.Y.U.U.",
"T.R.E.Q.!.@X#X$X$X%X%X&X&X%X&X&X$X%X%X$X$X$X#X#X@X/.Q.R.Y.U.L.F."
};
