/* XPM */
static char *e4d07a5b74034b6fad46a4870363b06afAyzg9DD3WblyVPL[] = {
/* columns rows colors chars-per-pixel */
"32 32 232 2 ",
"   c #3F1D35",
".  c #2D213E",
"X  c #38233A",
"o  c #4A283B",
"O  c #5A2C3A",
"+  c #5A323D",
"@  c #682C39",
"#  c #62323C",
"$  c #0B2A47",
"%  c #0B2D4B",
"&  c #112F4C",
"*  c #0E304F",
"=  c #0D3252",
"-  c #133656",
";  c #133A5B",
":  c #2E2C4B",
">  c #342543",
",  c #392945",
"<  c #352A4B",
"1  c #3B2C4C",
"2  c #3E3D4C",
"3  c #3C2E52",
"4  c #383453",
"5  c #3D3255",
"6  c #373A5E",
"7  c #163E61",
"8  c #373F63",
"9  c #422B45",
"0  c #462945",
"q  c #442E4C",
"w  c #562D44",
"e  c #44314D",
"r  c #4D344B",
"t  c #583648",
"y  c #4D2F50",
"u  c #433253",
"i  c #4E3352",
"p  c #483858",
"a  c #543354",
"s  c #5A3957",
"d  c #5B375B",
"f  c #6A3A45",
"g  c #64374A",
"h  c #6E3E4A",
"j  c #773B47",
"k  c #643B53",
"l  c #683855",
"z  c #773C56",
"x  c #2C4C5D",
"c  c #174265",
"v  c #1A486B",
"b  c #1A4D72",
"n  c #284566",
"m  c #374861",
"M  c #355A77",
"N  c #326475",
"B  c #5B4457",
"V  c #4A515E",
"C  c #585359",
"Z  c #68434B",
"A  c #77464C",
"S  c #674557",
"D  c #774757",
"F  c #7B4B5C",
"G  c #6D5858",
"H  c #785457",
"J  c #7C5059",
"K  c #444B68",
"L  c #584B69",
"P  c #565966",
"I  c #4B5772",
"U  c #604E69",
"Y  c #69566B",
"T  c #7B5369",
"R  c #43647B",
"E  c #6E6973",
"W  c #66667A",
"Q  c #8A3E49",
"!  c #93444A",
"~  c #98474C",
"^  c #8F564D",
"/  c #874858",
"(  c #964957",
")  c #885655",
"_  c #85525A",
"`  c #8B5A5D",
"'  c #955658",
"]  c #935A5A",
"[  c #9B5C5B",
"{  c #A64D53",
"}  c #A75B58",
"|  c #B45958",
" . c #846055",
".. c #99615C",
"X. c #A8665C",
"o. c #BC6A5B",
"O. c #864C62",
"+. c #845864",
"@. c #965A64",
"#. c #A75B61",
"$. c #B25963",
"%. c #9B6566",
"&. c #9E786E",
"*. c #866770",
"=. c #9C7C73",
"-. c #A76766",
";. c #A46B64",
":. c #BF6460",
">. c #A67768",
",. c #B37566",
"<. c #A56774",
"1. c #A87573",
"2. c #B87674",
"3. c #CA726B",
"4. c #938173",
"5. c #B9836D",
"6. c #B78E6C",
"7. c #A6937F",
"8. c #C68878",
"9. c #CA9A77",
"0. c #E18A79",
"q. c #E19973",
"w. c #C6A174",
"e. c #F8AF7A",
"r. c #125D88",
"t. c #245D82",
"y. c #0A6B94",
"u. c #126C91",
"i. c #0A719C",
"p. c #2C688C",
"a. c #396384",
"s. c #286D94",
"d. c #377595",
"f. c #3A7B9D",
"g. c #167BA3",
"h. c #4D6F88",
"j. c #437786",
"k. c #467893",
"l. c #547E94",
"z. c #6D6D81",
"x. c #687788",
"c. c #717B91",
"v. c #847E96",
"b. c #3F818C",
"n. c #39829F",
"m. c #4F8198",
"M. c #668595",
"N. c #748896",
"B. c #768D95",
"V. c #4287A4",
"C. c #548BA4",
"Z. c #4E96AC",
"A. c #5E99AE",
"S. c #4B9AB3",
"D. c #549DB4",
"F. c #7D8EA6",
"G. c #6E97AA",
"H. c #54ABBC",
"J. c #79AEB5",
"K. c #5AB1C3",
"L. c #65C0CB",
"P. c #76C3CB",
"I. c #968799",
"U. c #879296",
"Y. c #96979E",
"T. c #B3938D",
"R. c #A98995",
"E. c #B7A494",
"W. c #888DA0",
"Q. c #8A99A7",
"!. c #9A96A5",
"~. c #AA9BA4",
"^. c #A999A6",
"/. c #82A8AC",
"(. c #96ADA3",
"). c #97A3B3",
"_. c #9AB5B7",
"`. c #A7A5A7",
"'. c #B5AAA6",
"]. c #B5B3A6",
"[. c #A9AEB6",
"{. c #A9B7B5",
"}. c #B6B6B8",
"|. c #CD9689",
" X c #D69787",
".X c #CA9D92",
"XX c #E49786",
"oX c #C7BD9C",
"OX c #DBB997",
"+X c #E3AB88",
"@X c #EBB18E",
"#X c #F2B599",
"$X c #D1B3A9",
"%X c #C7BAB8",
"&X c #F5BFA4",
"*X c #9BC1BA",
"=X c #ADC0B5",
"-X c #BFC8BD",
";X c #DCCB9F",
":X c #E2C492",
">X c #C9C6AC",
",X c #D6CEAA",
"<X c #D4D3AC",
"1X c #C9C9B8",
"2X c #D8C9B5",
"3X c #CDD1B7",
"4X c #E7CEAD",
"5X c #F6E6BA",
"6X c #FEF4B9",
"7X c #9EB9C4",
"8X c #AABEC5",
"9X c #8DCDCA",
"0X c #93CCC9",
"qX c #95DAD4",
"wX c #ABCFCE",
"eX c #9FE0DA",
"rX c #AAE3D8",
"tX c #C8CBC6",
"yX c #CBD7C7",
"uX c #DAD3C5",
"iX c #E4D5C7",
"pX c #F4DAC5",
"aX c #D6E5CA",
"sX c #C8EADB",
"dX c #D5ECD7",
"fX c #E0E6C8",
"gX c #EEEFCC",
"hX c #F8E6CB",
"jX c #FAF4C8",
"kX c #E9EBD6",
"lX c #FAF4D8",
"zX c #D6ECE2",
/* pixels */
"= = = = = = = = = % = = % % = % % % % % $ % % $ $ $ $ $ $ $ % % ",
"; - - - - - ; - - - - - = = & - G = - = = = = & '.N.& & & I.m % ",
"c 7 c c n R lXpX^.M c ; 7 ; ; m m 7 7 7 ; - - 1XhX}.W.1XuXpX[.).",
"v v v M.1XkXlXpX}.).].F.b 7 L OX2 b b v v v 1XlXuX}.kXlX}.%X!.W.",
"b b F.lXlXlXhXiX}.[.[.`.^.|...w s . < < n `.lXhXtXiXiX'.!.I.I.v.",
"d.j.jXpXpXhXiX%X}.8X Xl ,.3.,.D 0 3 1 3 e q E 1XtX%X^.I.v.I.c.a.",
"p.!.$X^.^.^.^.^..X#X) -..X2./ t w   9 u e X p u z.^.^.^.!.h.t.t.",
"s.d.C.I.R.R.R.$X&X#X+X_ S M M j.a.a.M I X t i u 0 U G.k.p.p.p.p.",
"n.yX1XA.S.D.iX#X.X' s l.d.l.n.V.V.V.n.m.p.K p a p u 8 f.f.f.d.s.",
"7X'.E.J.H.'. X#Xf I d.M.M l.S.S.D.D.Z.W M d.`.z l 3 < 8 1XA.C.f.",
"H.H.K.J.*X+XA A Y Q.G.I 5 N.3.o.<.+.z.W 4 '.n k.z.l q 3 tX8X).Z.",
"K.K.0XiX#X) # Y Y.I.Y.M D o.{ @ O z a P 6 M.l.C.Z.F y u U v.W.D.",
"L.P.uX4X X3.A ~.`.{. X*.l ~ >.4X6Xq.` O.i a L K.9XhX( r y k.K.H.",
"9XyX0XOX0.@ /.J.P.E.2.( t G jXjX6XjX3Xr D e 1 m uX4X.Xo q 3 P.P.",
"fX2X2X0.} S 0XJ._.XX@.w D n.gX3X3X>Xy.x ~ 1 a p >X}.9XT > 3 tXiX",
"qXwX}.o.! J.qXqX(.j l o x s.1X].3Xh.r.N 3.l > p c.qX9X8.q y N.wX",
"rXrX{.| ! *XrXrX0.$.o 2 R i.{.3XjXM.i.b.V d , p W qXrX>.1 e P rX",
"aXdX,X} j =XdXdX3./ 3 V b.g.(.<X6XM.i.b.P S , p z.sXsX+Xr q W aX",
"gXgX4Xj ^ >XjXgX| O.s 9 N n.U.<X6XM.y.N G a , . z.lXgXe.a i E gX",
"dXkX%X/ H ].yXkX( l B @.m y.M.<X6XM.b W d > , 1 W zXsX@X, i wXdX",
"8X8X!.Q ! q T.{.( X O O.6 i.B.3X_.x.i.U i 9 > 1 E 1X].S u 1 wXwX",
",X;XOX|.z l Z 6.w < 0 l 6 u.B.<X5XM.i.L d d p < C 6. .r B 4 ,XoX",
"w.6.9.} z l 0 > : > 0 a 6 y.B.].;Xx.u.B 1 o . , r + &.3 3 4.T.|.",
"7.&.5.6.z O.z k > < 1 u 4 b E oX:XP r.m +.` e , o , : > B =.=.&.",
"2.^ H 5...A Z ..S r t p p p E T.OX*.I r S Z k t 4.B &.3 , S H ` ",
"^ ) ,.J 1 r t ..[ ^ X.] ^ A J H *.) _ O.&.%.] F ` t r 1 1 < < p ",
"X.X.;.) ^ ..X.X.,.A F X.` 2...J ` T.1.&.,.-.5.%.-.` @.@.T B S p ",
"..^ 9.8.t Z X.) J [ S <.2.,.;.1.@.8.@.+.<.A / ] ) A _ ,.i F ,.T ",
"..^ [ o , X w [ X.-.3.-.' 8.A [ ( 8.#.-.-.@./ _ / ;.>.9 t . B p ",
"] h A f o X 0 r r w A j @ @ g A # g h f w h g o D A t y a r 5 p ",
"# 1.A h t ] k | ~ ! D } } O ! Q O ! ! ;.j / l w ] F / A t i 5 5 ",
"J A A # ! h k ! j l o j Q w ( g g | { ( z / d Q @.O.O.k s k l r "
};
