/* XPM */
static char *_ee740cacc5e46db83cb698d8cf0f737uXC37yMKfVR7y6NE[] = {
/* columns rows colors chars-per-pixel */
"32 32 192 2 ",
"   c None",
".  c black",
"X  c #010000",
"o  c #000001",
"O  c #010001",
"+  c #010101",
"@  c #030407",
"#  c #040506",
"$  c #060406",
"%  c #070507",
"&  c #020308",
"*  c #020408",
"=  c #070708",
"-  c #05080A",
";  c #08080D",
":  c #0A0A0D",
">  c #090A0F",
",  c #160D0A",
"<  c #160D0B",
"1  c #1B110F",
"2  c #1C110D",
"3  c #1F110E",
"4  c #0F0F14",
"5  c #0D1015",
"6  c #0F1117",
"7  c #101115",
"8  c #111117",
"9  c #191113",
"0  c #191212",
"q  c #1C1211",
"w  c #1D1211",
"e  c #1E1412",
"r  c #1E1315",
"t  c #101319",
"y  c #10121A",
"u  c #15141A",
"i  c #11141D",
"p  c #10151D",
"a  c #13151C",
"s  c #13141D",
"d  c #12161F",
"f  c #16171F",
"g  c #19181D",
"h  c #18191E",
"j  c #18191F",
"k  c #2F0E0E",
"l  c #201412",
"z  c #231413",
"x  c #211615",
"c  c #211816",
"v  c #251816",
"b  c #241917",
"n  c #261917",
"m  c #241B1B",
"M  c #261C1A",
"N  c #211D1D",
"B  c #2C1F1D",
"V  c #371412",
"C  c #341E18",
"Z  c #29211E",
"A  c #31231E",
"S  c #30231F",
"D  c #35241E",
"F  c #35241F",
"G  c #131620",
"H  c #151820",
"J  c #151921",
"K  c #151A23",
"L  c #191921",
"P  c #1A1820",
"I  c #1A1B20",
"U  c #191C24",
"Y  c #1C1E2A",
"T  c #201F23",
"R  c #1A202B",
"E  c #1B202B",
"W  c #1D212C",
"Q  c #1C222E",
"!  c #1F2732",
"~  c #2C2222",
"^  c #282326",
"/  c #29272A",
"(  c #312120",
")  c #332521",
"_  c #3A2521",
"`  c #382723",
"'  c #342827",
"]  c #3E2823",
"[  c #362A2A",
"{  c #322B2C",
"}  c #312D2D",
"|  c #362C2C",
" . c #39332F",
".. c #212735",
"X. c #212935",
"o. c #222834",
"O. c #232B36",
"+. c #242B36",
"@. c #242C35",
"#. c #242C37",
"$. c #2E2D31",
"%. c #292D37",
"&. c #2D2D36",
"*. c #222A38",
"=. c #242A38",
"-. c #242C39",
";. c #272F39",
":. c #292F39",
">. c #302C30",
",. c #322D31",
"<. c #26333B",
"1. c #29313B",
"2. c #2C313C",
"3. c #2D313C",
"4. c #343031",
"5. c #343132",
"6. c #363233",
"7. c #313035",
"8. c #333134",
"9. c #3A3333",
"0. c #3A3334",
"q. c #383236",
"w. c #383337",
"e. c #3A3336",
"r. c #393537",
"t. c #3A3637",
"y. c #3E3535",
"u. c #30343D",
"i. c #30353F",
"p. c #35343C",
"a. c #36363E",
"s. c #393539",
"d. c #3B3639",
"f. c #3E3939",
"g. c #3D393D",
"h. c #412923",
"j. c #462B24",
"k. c #4A2C27",
"l. c #49342F",
"z. c #4F3535",
"x. c #4B3A33",
"c. c #4E3931",
"v. c #403938",
"b. c #413B3B",
"n. c #42393C",
"m. c #473D3D",
"M. c #4B3E39",
"N. c #4D3F3F",
"B. c #5B3830",
"V. c #5D3B31",
"C. c #5F3E31",
"Z. c #564138",
"A. c #744C3D",
"S. c #263540",
"D. c #263744",
"F. c #293E46",
"G. c #323641",
"H. c #333742",
"J. c #383742",
"K. c #373943",
"L. c #383941",
"P. c #3B3B40",
"I. c #383A43",
"U. c #3D3C41",
"Y. c #383B45",
"T. c #3C3C45",
"R. c #3B3E48",
"E. c #3C3F4D",
"W. c #483F41",
"Q. c #5D4B43",
"!. c #5D4C48",
"~. c #66534C",
"^. c #665A4D",
"/. c #7D6D63",
"(. c #816960",
"). c #816E6D",
"_. c #84716F",
"`. c #907E7E",
"'. c #9C897D",
"]. c #DFA87E",
"[. c #A08D88",
"{. c #B99781",
"}. c #CDA385",
"|. c #C4AB9B",
" X c #C8B8B1",
".X c #F0CAAD",
"XX c #FCDDB6",
"oX c #FEE3B2",
"OX c #FCE3BB",
"+X c #FEE9BA",
"@X c #DAC8C2",
"#X c #F5E2D4",
/* pixels */
"                                                                ",
"                                                                ",
"                                                                ",
"                                c.                              ",
"                              x h.+X                            ",
"                          # # = ; ` &                           ",
"                            x.'.}.^.].                          ",
"                            ) {.[.oX[                           ",
"                              (..XXX                            ",
"                        U.v.m `.A.#X( m./.                      ",
"                $.        ; ~ _.9 Z.f.4                         ",
"                r P       W v.@XV z.!.J.                        ",
"                p K M.  E o.9.).k N.E.K.T.                      ",
"                  P n p.E =.}  XB m.R.6 P.                      ",
"                    p U Y *.0.|.y.n.T.  K.P.                    ",
"                         .o.| ~.l.D H.  &.e.                    ",
"                          ! | 0.d.^ H.w.N g.                    ",
"                          W h e.0.w.p.G.Q.OX                    ",
"                          o.h 7.$.^ 6 3.                        ",
"                          #.K 6.. 8.t 3.                        ",
"                          #.j 5.. / p 3.                        ",
"                          -.t 5.. P G 3.                        ",
"                          * t } . f G p                         ",
"                        -.. 4 u . t h 7                         ",
"                        #.. m A F.c Z 9 >.                      ",
"                        -.. A k.D.e h.w :.                      ",
"                        - . x j.<.<._ 9 %.                      ",
"                            3 2 # * D n                         ",
"                            < 3     l <                         ",
"                          B.V.n     x C C.                      ",
"                                                                ",
"                                                                "
};
