/* XPM */
static char *_26c68f53628400df512cc4a9491de87ybTLrfajrQXw0OB2[] = {
/* columns rows colors chars-per-pixel */
"32 32 202 2 ",
"   c #0B0C12",
".  c #0F1217",
"X  c #161915",
"o  c #13151A",
"O  c #16191D",
"+  c #191B1B",
"@  c #1F271C",
"#  c #212A1C",
"$  c #26311C",
"%  c #0F1A26",
"&  c #121B25",
"*  c #1A1D23",
"=  c #131D2B",
"-  c #201F22",
";  c #1E2224",
":  c #17212D",
">  c #1C222B",
",  c #162332",
"<  c #182533",
"1  c #1A2837",
"2  c #192B3B",
"3  c #232324",
"4  c #272A25",
"5  c #25262A",
"6  c #2B2B2D",
"7  c #332E2D",
"8  c #273027",
"9  c #2C332A",
"0  c #323E26",
"q  c #222730",
"w  c #2C2E32",
"e  c #2F333A",
"r  c #343334",
"t  c #3A3634",
"y  c #3C3836",
"u  c #36363B",
"i  c #383739",
"p  c #36393E",
"a  c #3C3B3C",
"s  c #413E3D",
"d  c #543E38",
"f  c #364829",
"g  c #3C492D",
"h  c #3F4639",
"j  c #414E32",
"k  c #42413F",
"l  c #465535",
"z  c #1D3145",
"x  c #343C46",
"c  c #3C3D42",
"v  c #413F40",
"b  c #3E4440",
"n  c #3D434B",
"m  c #454344",
"M  c #484443",
"N  c #4C4945",
"B  c #43444A",
"V  c #48484A",
"C  c #4D4C4C",
"Z  c #534D4C",
"A  c #495049",
"S  c #54514E",
"D  c #57584B",
"F  c #454D54",
"G  c #4D4E52",
"H  c #4E5152",
"J  c #545353",
"K  c #5A5652",
"L  c #5D5A55",
"P  c #53555A",
"I  c #595759",
"U  c #55585C",
"Y  c #5C5B5B",
"T  c #625955",
"R  c #625D5B",
"E  c #64615E",
"W  c #68685A",
"Q  c #6D6C58",
"!  c #525A62",
"~  c #5A5D63",
"^  c #545D69",
"/  c #605C60",
"(  c #5C6064",
")  c #5C636A",
"_  c #5E6973",
"`  c #626263",
"'  c #6A6663",
"]  c #6C6965",
"[  c #63656A",
"{  c #656A6E",
"}  c #6B6B6C",
"|  c #776660",
" . c #736965",
".. c #716D6C",
"X. c #6F7C61",
"o. c #77716B",
"O. c #626972",
"+. c #6B6D73",
"@. c #6A7177",
"#. c #6E757C",
"$. c #747374",
"%. c #797574",
"&. c #73777D",
"*. c #797978",
"=. c #7B7B7B",
"-. c #857367",
";. c #857972",
":. c #827E7C",
">. c #85817F",
",. c #747B83",
"<. c #7C7F83",
"1. c #737D88",
"2. c #7A838C",
"3. c #718595",
"4. c #7198B4",
"5. c #5698D3",
"6. c #5C9BD3",
"7. c #629DD1",
"8. c #5FA0D4",
"9. c #63A5DB",
"0. c #65A6DB",
"q. c #65ADE1",
"w. c #6CADE1",
"e. c #6DB2E3",
"r. c #6FB8EA",
"t. c #71B5E6",
"y. c #70B4E8",
"u. c #72BCEC",
"i. c #74C1EF",
"p. c #848283",
"a. c #898685",
"s. c #848A8D",
"d. c #898888",
"f. c #8C8B8B",
"g. c #948D89",
"h. c #828C94",
"j. c #8B8E93",
"k. c #918E91",
"l. c #8E949A",
"z. c #939293",
"x. c #9A9595",
"c. c #979899",
"v. c #9C9B9C",
"b. c #AB9B94",
"n. c #A19F9C",
"m. c #A3A09E",
"M. c #AEA19B",
"N. c #8D9CAA",
"B. c #9D9EA2",
"V. c #9CA3A5",
"C. c #A5A3A3",
"Z. c #ABA6A5",
"A. c #ABA8A6",
"S. c #A4A6A9",
"D. c #A6A8AC",
"F. c #ACABAB",
"G. c #B4A8A3",
"H. c #BAACA5",
"J. c #B1AEAD",
"K. c #BAB1AB",
"L. c #ADAFB4",
"P. c #B5B4B3",
"I. c #B9B6B6",
"U. c #B9B8B9",
"Y. c #BCBABA",
"T. c #C3B8AF",
"R. c #C5BCB5",
"E. c #CBBDB4",
"W. c #C1BEBD",
"Q. c #C8C3BD",
"!. c #B9BAC2",
"~. c #82BDE6",
"^. c #BAC6D4",
"/. c #B9CADA",
"(. c #93C5E8",
"). c #A3C8E5",
"_. c #B2D3ED",
"`. c #C5C4C3",
"'. c #C8C6C5",
"]. c #CEC9C7",
"[. c #C7C7C9",
"{. c #CCCBCB",
"}. c #D1CECB",
"|. c #D4D0CD",
" X c #C6CDD8",
".X c #CCD4DD",
"XX c #D3D3D4",
"oX c #D9D7D6",
"OX c #E3DFDD",
"+X c #CCDBE6",
"@X c #D4DBE3",
"#X c #D9DDE3",
"$X c #D7E0E9",
"%X c #DDE2EB",
"&X c #E1E6EB",
"*X c #E7EAEF",
"=X c #F0F0EF",
"-X c #E7EBF3",
";X c #EBEDF0",
":X c #E9F2F9",
">X c #F2F3F4",
",X c #F7F7F8",
/* pixels */
"%X*X;X,X5.5.7.[ _ 5.5.6.6.6.6.6.9.9.q.q.q.w.4.,.1.r.~.,X_.w.w.w.",
".X#X=X,X,X) = : ! _ 6.6.6.9.8.8.0.q F _ @.,.= = <.u.u.u.r.w.y.w.",
"^.^..X#X_.2 , , , 1 = ,.1.@.P &.@.x s.= s.= , V.s.1.:X_.u.y.y.w.",
"~././.t.2 , , z 1 = , , <.s.L.k.F ^ F L.L.[.!.Y.B.h.h.r.u.y.y.(.",
"q.e.).(.3.1 z z j.B.k.z.l.p.c.P.!.[.n ^ [ Y.XX[.'.S.&.i.u.i.,X-X",
">X:X>X4.* ^ ^ =.&.c.s.D.n O.! O.,.,.O.,.!.S.U.c.I : < @.i.).%X X",
"$X@X;X< , ! z.z.3 e ) u w ~ c <.U.}.m.c = H W.|.`.`., , v.%X/..X",
"@X@X&X=X= & ` ~ P w } +.w P [ ~ v.w 5 V ` $.c W.c.{.D.} z.&X@X.X",
"X.Q +X,.& O.+.c.`.{.P +.V V p a ].oX`.|.v F.F.d.Y.I.F.z.P.2.@X^.",
"D Q *Xb n [ x.C.a I.B +.G ] I M J.%.OXT P.[ G B.`.`.H F.U.= l.$X",
"l V.+X: n S...C.] W.c [ B.oXp.I M } J.Z.K.w $.`.'.'.P.Q.I.F.= +X",
"Q..X#X: & * v.v.C.F.c I I ' Z v ].I C <.%.R.c c.Q.].].F.F.A.% % ",
"XXh h n b % n.p.C.R.p p / w } B./ 6 ~ u q 5 6 p.} =.F.z.D.B.A.g ",
"$ $ % b > : c 5 * c k.[ w c u D.I G 5 u 5 * 5 w A.I.W.P.{ A.F.j ",
"g f $ & ; 9 5 k.a v G Z.Z J.C.v M a.j.` c u w 5 b f.P.'.J.m.>.i ",
"l $ f $ f H A H d.r m.R...I W.V G ` p a w B $.w r C.'.{.P.f.z.f.",
"0 # $ # 9 XXXXc c 7 $.:.=.Y 3 J $.V Y.U.>...v 5 - - G.6 Z =.k.>.",
"0 @ 4 3 `.P.d.Z C w 5 6 s r m V =.x.R.T E.7 v c w =.[.[.[.f.:.>.",
"g X X ; Y.I.Z.m M.w w - 5 v r K %.p.T.E.T.g.G.c r ' Y.R.`.V n.k.",
"# 4 r Y.Y.`.x.s b.R  .s w 6 5 m y v G M.E.T.T.T.v v v `.W.Z.a.:.",
"0 # r Y.U.n.w %Xx.o.7 ;.-.K ..r v r / v v H.G.T.G.t | F.] W.$.$.",
"j j c.P.P.q x N.q Z R y s T | ' 3 R v s ..v w x  .s v Z T I.o...",
"+ # A.m.F.I.!.l.* d | - Z 7 -.t  .6 -.t -.6 6 v 6 * XXL.{.U.x.g.",
"5 6 m.A...U.U.1.v 7 -.-.Z ;.E Z Z s | v w v v -.;.* U.J.L.P.K.g.",
"X n.C.] v.Z. X#.a 4 m ' J K ' $.E ] E ..] ] '  .J * P.J.F.U.F.:.",
"3 k.k.k.%.p.1.O.Z L E K ..' ] T ] ' L ] E L L W o * C.Z.n.<.=.g.",
"f.d.f.f.v.v.2.U L D T ] E ..E ] ] R o.E S ] K S . * o B.n.n.a.a.",
"=.%.a.:.d.S.,.J S W o.o.E L E L E E L L S I s s . o o k.k.n.>.f.",
"r ~ ..%.a.l.O.L s M N k C S N J K k D k N C Y a o o O d.+.*.} ..",
"..=.J ..} @.U A D y N K N E K C S r S S N K N 5 .   o &.$.=.+.a ",
"H A H H I ( Z t C t S m Z h a M s s m r y s k r 3 O o ~ H G J 5 ",
"; i 9 8 8 t M t r Y k s a C t N a t 4 k S N # 3 R ` M H m 3 # 6 "
};
